<svg width="20" height="19" viewBox="0 0 20 19" fill="none" xmlns="http://www.w3.org/2000/svg">
<path d="M9.54409 0.678589C11.0959 0.678589 12.5842 1.29199 13.6815 2.38385C14.7789 3.47572 15.3953 4.9566 15.3953 6.50073C15.3953 12.9743 17.7686 14.25 18.4096 14.25H0.678589C1.33327 14.25 3.69286 12.9607 3.69286 6.50073C3.69286 4.9566 4.30933 3.47572 5.40665 2.38385C6.50397 1.29199 7.99225 0.678589 9.54409 0.678589V0.678589Z" stroke="#0A0D12" stroke-width="1.35714" stroke-linecap="round" stroke-linejoin="round"/>
<path d="M7.49805 16.7336C7.61595 17.1842 7.88077 17.5831 8.25101 17.8679C8.62124 18.1527 9.07598 18.3072 9.54393 18.3072C10.0119 18.3072 10.4666 18.1527 10.8369 17.8679C11.2071 17.5831 11.4719 17.1842 11.5898 16.7336" stroke="#0A0D12" stroke-width="1.35714" stroke-linecap="round" stroke-linejoin="round"/>
</svg>
