<svg width="20" height="20" viewBox="0 0 20 20" fill="none" xmlns="http://www.w3.org/2000/svg">
<g clip-path="url(#clip0_531_4281)">
<path d="M7.47154 3.21436L8.08583 1.62864C8.18942 1.36016 8.37169 1.12923 8.60875 0.966087C8.84582 0.802947 9.12663 0.715206 9.4144 0.714355H10.5858C10.8736 0.715206 11.1544 0.802947 11.3915 0.966087C11.6285 1.12923 11.8108 1.36016 11.9144 1.62864L12.5287 3.21436L14.6144 4.41436L16.3001 4.15721C16.5808 4.11911 16.8665 4.16532 17.1209 4.28996C17.3752 4.4146 17.5868 4.61205 17.7287 4.85721L18.3001 5.85721C18.4465 6.10628 18.514 6.3939 18.4936 6.6821C18.4732 6.9703 18.3659 7.24554 18.1858 7.4715L17.143 8.80007V11.2001L18.2144 12.5286C18.3945 12.7546 18.5018 13.0298 18.5222 13.318C18.5426 13.6062 18.4751 13.8939 18.3287 14.1429L17.7573 15.1429C17.6154 15.3881 17.4038 15.5855 17.1494 15.7102C16.8951 15.8348 16.6094 15.881 16.3287 15.8429L14.643 15.5858L12.5573 16.7858L11.943 18.3715C11.8394 18.64 11.6571 18.8709 11.42 19.0341C11.183 19.1972 10.9022 19.2849 10.6144 19.2858H9.4144C9.12663 19.2849 8.84582 19.1972 8.60875 19.0341C8.37169 18.8709 8.18942 18.64 8.08583 18.3715L7.47154 16.7858L5.38583 15.5858L3.70011 15.8429C3.41942 15.881 3.13374 15.8348 2.87937 15.7102C2.625 15.5855 2.41343 15.3881 2.27154 15.1429L1.70011 14.1429C1.55369 13.8939 1.48622 13.6062 1.50663 13.318C1.52703 13.0298 1.63434 12.7546 1.8144 12.5286L2.85726 11.2001V8.80007L1.78583 7.4715C1.60577 7.24554 1.49846 6.9703 1.47805 6.6821C1.45765 6.3939 1.52511 6.10628 1.67154 5.85721L2.24297 4.85721C2.38486 4.61205 2.59643 4.4146 2.8508 4.28996C3.10517 4.16532 3.39085 4.11911 3.67154 4.15721L5.35726 4.41436L7.47154 3.21436ZM7.14297 10.0001C7.14297 10.5652 7.31054 11.1176 7.62449 11.5874C7.93843 12.0573 8.38466 12.4235 8.90673 12.6397C9.42881 12.856 10.0033 12.9126 10.5575 12.8023C11.1117 12.6921 11.6208 12.42 12.0204 12.0204C12.42 11.6208 12.6921 11.1117 12.8024 10.5575C12.9126 10.0032 12.856 9.42876 12.6398 8.90669C12.4235 8.38461 12.0573 7.93839 11.5875 7.62444C11.1176 7.3105 10.5652 7.14293 10.0001 7.14293C9.24235 7.14293 8.51563 7.44395 7.97981 7.97976C7.44399 8.51558 7.14297 9.24231 7.14297 10.0001V10.0001Z" stroke="#0A0D12" stroke-width="1.42857" stroke-linecap="round" stroke-linejoin="round"/>
</g>
<defs>
<clipPath id="clip0_531_4281">
<rect width="20" height="20" fill="white"/>
</clipPath>
</defs>
</svg>