<svg width="18" height="18" viewBox="0 0 18 18" fill="none" xmlns="http://www.w3.org/2000/svg">
<g clip-path="url(#clip0_538_6539)">
<path d="M4.49979 9.64289C4.85483 9.64289 5.14265 9.35508 5.14265 9.00003C5.14265 8.64499 4.85483 8.35718 4.49979 8.35718C4.14475 8.35718 3.85693 8.64499 3.85693 9.00003C3.85693 9.35508 4.14475 9.64289 4.49979 9.64289Z" stroke="#717680" stroke-width="1.28571" stroke-linecap="round" stroke-linejoin="round"/>
<path d="M8.67838 9.64289C9.03342 9.64289 9.32124 9.35508 9.32124 9.00003C9.32124 8.64499 9.03342 8.35718 8.67838 8.35718C8.32334 8.35718 8.03552 8.64499 8.03552 9.00003C8.03552 9.35508 8.32334 9.64289 8.67838 9.64289Z" stroke="#717680" stroke-width="1.28571" stroke-linecap="round" stroke-linejoin="round"/>
<path d="M12.8568 9.64289C13.2119 9.64289 13.4997 9.35508 13.4997 9.00003C13.4997 8.64499 13.2119 8.35718 12.8568 8.35718C12.5018 8.35718 12.214 8.64499 12.214 9.00003C12.214 9.35508 12.5018 9.64289 12.8568 9.64289Z" stroke="#717680" stroke-width="1.28571" stroke-linecap="round" stroke-linejoin="round"/>
<path d="M8.99997 0.642824C7.48827 0.643294 6.00502 1.05379 4.70818 1.83058C3.41133 2.60738 2.34948 3.72138 1.6357 5.05395C0.921916 6.38651 0.582948 7.88773 0.654894 9.39771C0.72684 10.9077 1.20701 12.3699 2.04425 13.6285L0.642822 17.3571L5.33568 16.5085C6.4657 17.0607 7.70579 17.3508 8.96351 17.357C10.2212 17.3632 11.4641 17.0855 12.5996 16.5445C13.735 16.0035 14.7337 15.2132 15.5212 14.2325C16.3087 13.2519 16.8647 12.1061 17.1477 10.8806C17.4307 9.65512 17.4335 8.38157 17.1558 7.15487C16.8781 5.92818 16.3272 4.77998 15.5439 3.79586C14.7607 2.81175 13.7655 2.01711 12.6324 1.47117C11.4994 0.925232 10.2577 0.642081 8.99997 0.642824V0.642824Z" stroke="#717680" stroke-width="1.28571" stroke-linecap="round" stroke-linejoin="round"/>
</g>
<defs>
<clipPath id="clip0_538_6539">
<rect width="18" height="18" fill="white"/>
</clipPath>
</defs>
</svg>
