<svg width="18" height="18" viewBox="0 0 18 18" fill="none" xmlns="http://www.w3.org/2000/svg">
<g clip-path="url(#clip0_703_3603)">
<path d="M8.99997 0.643068C7.48827 0.643538 6.00502 1.05403 4.70818 1.83083C3.41133 2.60762 2.34948 3.72163 1.6357 5.05419C0.921916 6.38676 0.582948 7.88797 0.654894 9.39795C0.72684 10.9079 1.20701 12.3701 2.04425 13.6288L0.642822 17.3574L5.33568 16.5088C6.4657 17.061 7.70579 17.351 8.96351 17.3572C10.2212 17.3635 11.4641 17.0857 12.5996 16.5448C13.735 16.0038 14.7337 15.2135 15.5212 14.2328C16.3087 13.2521 16.8647 12.1063 17.1477 10.8808C17.4307 9.65536 17.4335 8.38181 17.1558 7.15512C16.8781 5.92842 16.3272 4.78022 15.5439 3.79611C14.7607 2.812 13.7655 2.01735 12.6324 1.47141C11.4994 0.925477 10.2577 0.642325 8.99997 0.643068Z" fill="#1570EF" stroke="#1570EF" stroke-width="1.28571" stroke-linecap="round" stroke-linejoin="round"/>
<path d="M4.64286 10.2857C4.9979 10.2857 5.28571 9.9979 5.28571 9.64286C5.28571 9.28782 4.9979 9 4.64286 9C4.28782 9 4 9.28782 4 9.64286C4 9.9979 4.28782 10.2857 4.64286 10.2857Z" fill="#FAFAFA" stroke="#FAFAFA" stroke-width="1.28571" stroke-linecap="round" stroke-linejoin="round"/>
<path d="M8.82145 10.2857C9.17649 10.2857 9.4643 9.9979 9.4643 9.64286C9.4643 9.28782 9.17649 9 8.82145 9C8.46641 9 8.17859 9.28782 8.17859 9.64286C8.17859 9.9979 8.46641 10.2857 8.82145 10.2857Z" fill="#FAFAFA" stroke="#FAFAFA" stroke-width="1.28571" stroke-linecap="round" stroke-linejoin="round"/>
<path d="M12.9999 10.2857C13.355 10.2857 13.6428 9.9979 13.6428 9.64286C13.6428 9.28782 13.355 9 12.9999 9C12.6449 9 12.3571 9.28782 12.3571 9.64286C12.3571 9.9979 12.6449 10.2857 12.9999 10.2857Z" fill="#FAFAFA" stroke="#FAFAFA" stroke-width="1.28571" stroke-linecap="round" stroke-linejoin="round"/>
</g>
<defs>
<clipPath id="clip0_703_3603">
<rect width="18" height="18" fill="white"/>
</clipPath>
</defs>
</svg>
