<svg width="18" height="18" viewBox="0 0 18 18" fill="none" xmlns="http://www.w3.org/2000/svg">
<g clip-path="url(#clip0_531_5713)">
<path d="M17.3571 8.92282C17.3583 8.74436 17.3224 8.56761 17.2516 8.40381C17.1807 8.24001 17.0766 8.09274 16.9457 7.97139L8.99999 0.642822L1.05428 7.97139C0.923426 8.09274 0.819268 8.24001 0.748435 8.40381C0.677601 8.56761 0.641644 8.74436 0.642852 8.92282V16.0714C0.642852 16.4124 0.778311 16.7394 1.01943 16.9805C1.26055 17.2216 1.58757 17.3571 1.92857 17.3571H16.0714C16.4124 17.3571 16.7394 17.2216 16.9806 16.9805C17.2217 16.7394 17.3571 16.4124 17.3571 16.0714V8.92282Z" stroke="#717680" stroke-width="1.28571" stroke-linecap="round" stroke-linejoin="round"/>
</g>
<defs>
<clipPath id="clip0_531_5713">
<rect width="18" height="18" fill="white"/>
</clipPath>
</defs>
</svg>
