<svg width="18" height="18" viewBox="0 0 18 18" fill="none" xmlns="http://www.w3.org/2000/svg">
<g clip-path="url(#clip0_488_1735)">
<path d="M17.3571 8.92286C17.3583 8.7444 17.3224 8.56764 17.2516 8.40384C17.1807 8.24004 17.0766 8.09278 16.9457 7.97143L8.99999 0.642857L1.05428 7.97143C0.923426 8.09278 0.819268 8.24004 0.748435 8.40384C0.677601 8.56764 0.641644 8.7444 0.642852 8.92286V16.0714C0.642852 16.4124 0.778311 16.7394 1.01943 16.9806C1.26055 17.2217 1.58757 17.3571 1.92857 17.3571H16.0714C16.4124 17.3571 16.7394 17.2217 16.9806 16.9806C17.2217 16.7394 17.3571 16.4124 17.3571 16.0714V8.92286Z" fill="#1570EF" stroke="#1570EF" stroke-width="1.28571" stroke-linecap="round" stroke-linejoin="round"/>
</g>
<defs>
<clipPath id="clip0_488_1735">
<rect width="18" height="18" fill="white"/>
</clipPath>
</defs>
</svg>
