<svg width="42" height="42" viewBox="0 0 42 42" fill="none" xmlns="http://www.w3.org/2000/svg">
<path d="M21 21C26.3848 21 30.75 16.6348 30.75 11.25C30.75 5.86522 26.3848 1.5 21 1.5C15.6152 1.5 11.25 5.86522 11.25 11.25C11.25 16.6348 15.6152 21 21 21Z" fill="#FAFAFA" fill-opacity="0.5"/>
<path d="M39.54 40.5001C38.2805 36.5727 35.8064 33.1467 32.4743 30.716C29.1422 28.2853 25.1244 26.9756 21 26.9756C16.8755 26.9756 12.8577 28.2853 9.52561 30.716C6.19354 33.1467 3.71943 36.5727 2.45996 40.5001H39.54Z" fill="#FAFAFA" fill-opacity="0.5"/>
<path d="M21 21C26.3848 21 30.75 16.6348 30.75 11.25C30.75 5.86522 26.3848 1.5 21 1.5C15.6152 1.5 11.25 5.86522 11.25 11.25C11.25 16.6348 15.6152 21 21 21Z" stroke="#FAFAFA" stroke-width="2.5" stroke-linecap="round" stroke-linejoin="round"/>
<path d="M39.54 40.5001C38.2805 36.5727 35.8064 33.1467 32.4743 30.716C29.1422 28.2853 25.1244 26.9756 21 26.9756C16.8755 26.9756 12.8577 28.2853 9.52561 30.716C6.19354 33.1467 3.71943 36.5727 2.45996 40.5001H39.54Z" stroke="#FAFAFA" stroke-width="2.5" stroke-linecap="round" stroke-linejoin="round"/>
</svg>
