<svg width="19" height="19" viewBox="0 0 19 19" fill="none" xmlns="http://www.w3.org/2000/svg">
<path d="M9.50002 0.678711C11.0441 0.678711 12.525 1.29211 13.6169 2.38398C14.7088 3.47584 15.3222 4.95673 15.3222 6.50085C15.3222 12.9744 17.6836 14.2501 18.3214 14.2501H0.678589C1.33002 14.2501 3.67787 12.9609 3.67787 6.50085C3.67787 4.95673 4.29128 3.47584 5.38314 2.38398C6.475 1.29211 7.95589 0.678711 9.50002 0.678711V0.678711Z" stroke="#0A0D12" stroke-width="1.35714" stroke-linecap="round" stroke-linejoin="round"/>
<path d="M7.46411 16.7339C7.58142 17.1845 7.84493 17.5834 8.21333 17.8682C8.58173 18.153 9.0342 18.3075 9.49983 18.3075C9.96546 18.3075 10.4179 18.153 10.7863 17.8682C11.1547 17.5834 11.4182 17.1845 11.5355 16.7339" stroke="#0A0D12" stroke-width="1.35714" stroke-linecap="round" stroke-linejoin="round"/>
</svg>
