<svg width="110" height="110" viewBox="0 0 110 110" fill="none" xmlns="http://www.w3.org/2000/svg">
<path d="M47.1428 104.107H62.8571" stroke="#A4A7AE" stroke-width="7.85714" stroke-linecap="round" stroke-linejoin="round"/>
<path d="M86.4286 45.1786C86.4286 36.8432 83.1174 28.8492 77.2234 22.9552C71.3294 17.0612 63.3354 13.75 55.0001 13.75C46.6647 13.75 38.6707 17.0612 32.7767 22.9552C26.8827 28.8492 23.5715 36.8432 23.5715 45.1786V72.6786C23.5715 75.8043 22.3298 78.8021 20.1195 81.0123C17.9093 83.2226 14.9115 84.4643 11.7858 84.4643H98.2143C95.0886 84.4643 92.0908 83.2226 89.8806 81.0123C87.6703 78.8021 86.4286 75.8043 86.4286 72.6786V45.1786Z" stroke="#A4A7AE" stroke-width="7.85714" stroke-linecap="round" stroke-linejoin="round"/>
<path d="M3.92859 44.1571C3.93282 36.6782 5.71636 29.3077 9.13187 22.6543C12.5474 16.0008 17.4969 10.2555 23.5714 5.89282" stroke="#A4A7AE" stroke-width="7.85714" stroke-linecap="round" stroke-linejoin="round"/>
<path d="M106.071 44.1571C106.067 36.6782 104.284 29.3077 100.868 22.6543C97.4527 16.0008 92.5032 10.2555 86.4286 5.89282" stroke="#A4A7AE" stroke-width="7.85714" stroke-linecap="round" stroke-linejoin="round"/>
</svg>
