<svg width="110" height="110" viewBox="0 0 110 110" fill="none" xmlns="http://www.w3.org/2000/svg">
<path d="M74.6429 11.7856H86.4286C88.5125 11.7856 90.511 12.6134 91.9845 14.0869C93.458 15.5604 94.2858 17.5589 94.2858 19.6428V98.2142C94.2858 100.298 93.458 102.297 91.9845 103.77C90.511 105.244 88.5125 106.071 86.4286 106.071H23.5715C21.4877 106.071 19.4892 105.244 18.0157 103.77C16.5422 102.297 15.7144 100.298 15.7144 98.2142V19.6428C15.7144 17.5589 16.5422 15.5604 18.0157 14.0869C19.4892 12.6134 21.4877 11.7856 23.5715 11.7856H35.3572" stroke="#1570EF" stroke-width="7.85714" stroke-linecap="round" stroke-linejoin="round"/>
<path d="M66.786 3.92822H43.2146C38.8752 3.92822 35.3574 7.44599 35.3574 11.7854V15.7139C35.3574 20.0533 38.8752 23.5711 43.2146 23.5711H66.786C71.1254 23.5711 74.6431 20.0533 74.6431 15.7139V11.7854C74.6431 7.44599 71.1254 3.92822 66.786 3.92822Z" stroke="#1570EF" stroke-width="7.85714" stroke-linecap="round" stroke-linejoin="round"/>
<path d="M35.3574 66.7854L51.0717 78.5712L70.7146 47.1426" stroke="#1570EF" stroke-width="7.85714" stroke-linecap="round" stroke-linejoin="round"/>
</svg>