<svg width="20" height="20" viewBox="0 0 20 20" fill="none" xmlns="http://www.w3.org/2000/svg">
<path d="M17.899 17.7004C17.9215 17.9008 17.9013 18.1037 17.8398 18.2958C17.7782 18.4878 17.6767 18.6647 17.5419 18.8147C17.4067 18.9645 17.2413 19.0839 17.0566 19.1652C16.872 19.2464 16.6722 19.2876 16.4704 19.2861H2.52758C2.32582 19.2876 2.12603 19.2464 1.94136 19.1652C1.75669 19.0839 1.59132 18.9645 1.45615 18.8147C1.32134 18.6647 1.21981 18.4878 1.15826 18.2958C1.0967 18.1037 1.07651 17.9008 1.099 17.7004L2.35615 6.42896H16.6419L17.899 17.7004Z" fill="#1570EF" stroke="#1570EF" stroke-width="1.42857" stroke-linecap="round" stroke-linejoin="round"/>
<path d="M5.92822 6.42889V4.28603C5.92822 3.33883 6.3045 2.43042 6.97427 1.76065C7.64404 1.09087 8.55245 0.7146 9.49965 0.7146C10.4469 0.7146 11.3553 1.09087 12.025 1.76065C12.6948 2.43042 13.0711 3.33883 13.0711 4.28603V6.42889" fill="#FDFDFD" stroke="#1570EF" stroke-width="1.42857" stroke-linecap="round" stroke-linejoin="round"/>
</svg>
