<svg width="20" height="20" viewBox="0 0 20 20" fill="none" xmlns="http://www.w3.org/2000/svg">
<path d="M16.4286 7.14281C16.4286 10.6999 9.99998 19.2857 9.99998 19.2857C9.99998 19.2857 3.57141 10.6999 3.57141 7.14281C3.57141 5.43784 4.2487 3.80271 5.4543 2.59712C6.65989 1.39153 8.29502 0.714233 9.99998 0.714233C11.7049 0.714233 13.3401 1.39153 14.5457 2.59712C15.7513 3.80271 16.4286 5.43784 16.4286 7.14281Z" fill="#1570EF" stroke="#1570EF" stroke-width="1.28571" stroke-linecap="round" stroke-linejoin="round"/>
<path d="M9.99991 9.28571C11.1834 9.28571 12.1428 8.32632 12.1428 7.14286C12.1428 5.95939 11.1834 5 9.99991 5C8.81645 5 7.85706 5.95939 7.85706 7.14286C7.85706 8.32632 8.81645 9.28571 9.99991 9.28571Z" fill="#FAFAFA" stroke="#1570EF" stroke-width="1.28571" stroke-linecap="round" stroke-linejoin="round"/>
</svg>
