<svg width="20" height="20" viewBox="0 0 20 20" fill="none" xmlns="http://www.w3.org/2000/svg">
<path d="M16.4286 7.14286C16.4286 10.7 9.99998 19.2857 9.99998 19.2857C9.99998 19.2857 3.57141 10.7 3.57141 7.14286C3.57141 5.43789 4.2487 3.80276 5.4543 2.59717C6.65989 1.39158 8.29502 0.714285 9.99998 0.714285C11.7049 0.714285 13.3401 1.39158 14.5457 2.59717C15.7513 3.80276 16.4286 5.43789 16.4286 7.14286V7.14286Z" stroke="#717680" stroke-width="1.28571" stroke-linecap="round" stroke-linejoin="round"/>
<path d="M9.99991 9.28572C11.1834 9.28572 12.1428 8.32633 12.1428 7.14286C12.1428 5.95939 11.1834 5 9.99991 5C8.81645 5 7.85706 5.95939 7.85706 7.14286C7.85706 8.32633 8.81645 9.28572 9.99991 9.28572Z" stroke="#717680" stroke-width="1.28571" stroke-linecap="round" stroke-linejoin="round"/>
</svg>
