<svg width="14" height="14" viewBox="0 0 14 14" fill="none" xmlns="http://www.w3.org/2000/svg">
<g clip-path="url(#clip0_538_6033)">
<path d="M6.15005 0.53004C6.08959 0.493924 6.02047 0.474854 5.95005 0.474854C5.87962 0.474854 5.81051 0.493924 5.75005 0.53004C5.70018 0.569554 5.66653 0.625984 5.65547 0.688644C5.64441 0.751303 5.65671 0.815843 5.69005 0.87004C6.92005 3.00004 7.18005 5.90004 5.50005 7.50004C4.85367 6.95686 4.34051 6.27265 4.00005 5.50004C3.37878 5.84509 2.8639 6.35374 2.51131 6.97076C2.15873 7.58779 1.98191 8.28961 2.00005 9.00004C2.02541 9.62632 2.17578 10.2412 2.44232 10.8085C2.70886 11.3758 3.08617 11.8841 3.55206 12.3034C4.01796 12.7227 4.56301 13.0445 5.15515 13.25C5.7473 13.4556 6.37457 13.5406 7.00005 13.5C10.22 13.5 11.89 11.5 12 9.00004C12.13 6.00004 10 2.31004 6.15005 0.53004Z" stroke="#0A0D12" stroke-linecap="round" stroke-linejoin="round"/>
<path d="M9.5 9C9.5 9.53043 9.28929 10.0391 8.91421 10.4142C8.53914 10.7893 8.03043 11 7.5 11" stroke="#0A0D12" stroke-linecap="round" stroke-linejoin="round"/>
</g>
<defs>
<clipPath id="clip0_538_6033">
<rect width="14" height="14" fill="white"/>
</clipPath>
</defs>
</svg>
